<?xml version="1.0" encoding="UTF-8"?>
<!DOCTYPE svg PUBLIC "-//W3C//DTD SVG 1.1//EN" "http://www.w3.org/Graphics/SVG/1.1/DTD/svg11.dtd">
<svg xmlns="http://www.w3.org/2000/svg" version="1.1" width="992px" height="866px" style="shape-rendering:geometricPrecision; text-rendering:geometricPrecision; image-rendering:optimizeQuality; fill-rule:evenodd; clip-rule:evenodd" xmlns:xlink="http://www.w3.org/1999/xlink">
<g><path style="opacity:1" fill="#fefefe" d="M -0.5,-0.5 C 330.167,-0.5 660.833,-0.5 991.5,-0.5C 991.5,288.167 991.5,576.833 991.5,865.5C 660.833,865.5 330.167,865.5 -0.5,865.5C -0.5,576.833 -0.5,288.167 -0.5,-0.5 Z"/></g>
<g><path style="opacity:1" fill="#1e2022" d="M 499.5,123.5 C 509.518,122.672 518.851,124.838 527.5,130C 603.003,173.919 678.67,217.586 754.5,261C 765.569,267.061 772.402,276.228 775,288.5C 775.667,381.5 775.667,474.5 775,567.5C 772.83,580.339 765.996,589.839 754.5,596C 675.46,641.853 596.127,687.186 516.5,732C 506.793,734.542 497.459,733.542 488.5,729C 412.092,684.267 335.425,639.934 258.5,596C 247.536,590.02 240.702,580.853 238,568.5C 237.333,475.167 237.333,381.833 238,288.5C 240.701,274.606 248.535,264.773 261.5,259C 337.33,215.586 412.997,171.919 488.5,128C 492.157,126.178 495.824,124.678 499.5,123.5 Z"/></g>
<g><path style="opacity:1" fill="#f8f8f8" d="M 393.5,319.5 C 425.564,317.776 449.397,330.776 465,358.5C 467.442,363.933 469.108,369.6 470,375.5C 470.956,413.196 470.622,450.863 469,488.5C 453.525,528.49 424.692,544.323 382.5,536C 355.309,527.11 339.143,508.61 334,480.5C 333.333,446.5 333.333,412.5 334,378.5C 340.429,345.238 360.262,325.571 393.5,319.5 Z"/></g>
<g><path style="opacity:1" fill="#f7f8f8" d="M 542.5,319.5 C 583.501,319.333 624.501,319.5 665.5,320C 669.317,323.615 669.483,327.448 666,331.5C 645.136,358.063 624.636,384.897 604.5,412C 629.674,451.347 654.341,491.014 678.5,531C 678.01,532.982 677.01,534.649 675.5,536C 661.167,536.667 646.833,536.667 632.5,536C 614.207,505.911 595.541,476.078 576.5,446.5C 554.786,474.721 533.62,503.387 513,532.5C 510.261,536.782 506.927,537.448 503,534.5C 502.245,531.697 502.578,529.03 504,526.5C 526.167,496.333 548.333,466.167 570.5,436C 548.125,400.082 525.625,364.249 503,328.5C 502.333,326.167 502.333,323.833 503,321.5C 506.24,319.964 509.24,320.297 512,322.5C 554.167,390.167 596.333,457.833 638.5,525.5C 646.833,526.833 655.167,526.833 663.5,525.5C 622.531,459.367 581.365,393.367 540,327.5C 539.018,324.225 539.851,321.559 542.5,319.5 Z"/></g>
<g><path style="opacity:1" fill="#8f8f90" d="M 652.5,331.5 C 619.833,330.167 587.167,330.167 554.5,331.5C 553.957,331.44 553.624,331.107 553.5,330.5C 587.162,329.333 620.828,329.167 654.5,330C 653.956,330.717 653.289,331.217 652.5,331.5 Z"/></g>
<g><path style="opacity:1" fill="#1e2022" d="M 345.5,459.5 C 344.502,434.005 344.169,408.339 344.5,382.5C 347.886,355.275 362.886,338.108 389.5,331C 411.302,327.653 430.136,333.486 446,348.5C 449.976,353.149 453.143,358.315 455.5,364C 418.982,396.019 382.315,427.852 345.5,459.5 Z"/></g>
<g><path style="opacity:1" fill="#1f2123" d="M 652.5,331.5 C 634.499,355.007 616.665,378.673 599,402.5C 584.156,378.805 569.322,355.139 554.5,331.5C 587.167,330.167 619.833,330.167 652.5,331.5 Z"/></g>
<g><path style="opacity:1" fill="#202224" d="M 458.5,375.5 C 459.117,375.611 459.617,375.944 460,376.5C 460.667,384.167 460.667,391.833 460,399.5C 423,430.833 386,462.167 349,493.5C 345.876,487.212 344.542,480.545 345,473.5C 383.026,440.968 420.859,408.302 458.5,375.5 Z"/></g>
<g><path style="opacity:1" fill="#c6c6c7" d="M 344.5,382.5 C 344.169,408.339 344.502,434.005 345.5,459.5C 345.217,460.289 344.717,460.956 344,461.5C 343.17,434.997 343.337,408.663 344.5,382.5 Z"/></g>
<g><path style="opacity:1" fill="#1e2022" d="M 459.5,413.5 C 460.896,437.355 460.73,461.355 459,485.5C 448.169,515.637 426.669,529.803 394.5,528C 377.284,525.443 363.617,517.11 353.5,503C 388.731,472.926 424.064,443.093 459.5,413.5 Z"/></g>
</svg>
